<svg width="16" height="16" viewBox="0 0 16 16" fill="none" xmlns="http://www.w3.org/2000/svg">
<g clip-path="url(#clip0_952_3274)">
<path d="M8.68988 11.1648L12.7626 15.2375C13.446 15.9209 14.554 15.9209 15.2374 15.2375C15.9208 14.5541 15.9208 13.446 15.2374 12.7626L11.1648 8.68994C10.5815 9.72354 9.72348 10.5815 8.68988 11.1648Z" fill="#E0E0E0"/>
<path d="M11 1C11 0.447715 10.5523 0 10 0H7C6.44772 0 6 0.447715 6 1V4C6 4.55228 6.44772 5 7 5C7.55228 5 8 4.55228 8 4V3.05033C8.61889 3.68203 9 4.54703 9 5.50004C9 7.26328 7.69615 8.72198 6 8.96459V10.9776C8.80325 10.725 11 8.36906 11 5.50004C11 4.16979 10.5279 2.95059 9.74266 2H10C10.5523 2 11 1.55228 11 1Z" fill="#E0E0E0"/>
<path d="M0 10C0 10.5523 0.447715 11 1 11H4C4.55228 11 5 10.5523 5 10V7C5 6.44772 4.55228 6 4 6C3.44772 6 3 6.44772 3 7V7.94975C2.38111 7.31805 2 6.45305 2 5.50004C2 3.7368 3.30385 2.2781 5 2.03548V0.0224609C2.19675 0.275075 0 2.63102 0 5.50004C0 6.83026 0.472062 8.04943 1.25727 9H1C0.447715 9 0 9.44771 0 10Z" fill="#E0E0E0"/>
</g>
<defs>
<clipPath id="clip0_952_3274">
<rect width="16" height="16" fill="white"/>
</clipPath>
</defs>
</svg>
