<svg height="16" viewBox="0 0 16 16" width="16" xmlns="http://www.w3.org/2000/svg"><path d="m3 1-2 2v10l2 2h10l2-2v-10l-2-2zm2.1992188 3.171875a1 1 0 0 1 .6796874.2929688l2.1210938 2.1210937 2.121094-2.1210937a1 1 0 0 1 1.414062 0 1 1 0 0 1 0 1.4140624l-2.1210935 2.1210938 2.1210935 2.121094a1 1 0 0 1 0 1.414062 1 1 0 0 1 -1.414062 0l-2.121094-2.1210935-2.1210938 2.1210935a1 1 0 0 1 -1.4140624 0 1 1 0 0 1 0-1.414062l2.1210937-2.121094-2.1210937-2.1210938a1 1 0 0 1 0-1.4140624 1 1 0 0 1 .734375-.2929688z" fill="#fffaff"/></svg>