<svg width="16" height="16" viewBox="0 0 16 16" fill="none" xmlns="http://www.w3.org/2000/svg">
<g clip-path="url(#clip0_513_3269)">
<path fill-rule="evenodd" clip-rule="evenodd" d="M6.58578 3.4144C7.24015 2.76003 8.23514 2.6539 9 3.09599V4C9 4.80892 9.48728 5.5382 10.2346 5.84776C10.7544 6.06305 11.3288 6.04585 11.8228 5.82299L12.5858 6.58597C13.3668 7.36701 13.3668 8.63334 12.5858 9.41439L9.41421 12.586C8.75985 13.2403 7.76486 13.3465 7 12.9044V12C7 11.1911 6.51272 10.4618 5.76537 10.1522C5.24551 9.93691 4.67104 9.95416 4.17695 10.1771L3.41422 9.41439C2.63317 8.63334 2.63317 7.36701 3.41422 6.58597L6.58578 3.4144ZM8 9.00018C8.55229 9.00018 9 8.55246 9 8.00018C9 7.44789 8.55229 7.00018 8 7.00018C7.44772 7.00018 7 7.44789 7 8.00018C7 8.55246 7.44772 9.00018 8 9.00018ZM6 8.00018C6 8.55246 5.55229 9.00018 5 9.00018C4.44772 9.00018 4 8.55246 4 8.00018C4 7.44789 4.44772 7.00018 5 7.00018C5.55229 7.00018 6 7.44789 6 8.00018ZM11 9.00018C11.5523 9.00018 12 8.55246 12 8.00018C12 7.44789 11.5523 7.00018 11 7.00018C10.4477 7.00018 10 7.44789 10 8.00018C10 8.55246 10.4477 9.00018 11 9.00018Z" fill="white"/>
<path d="M5.42909 2.57732C5.92795 2.34034 6.14024 1.74383 5.90326 1.24497C5.66628 0.746113 5.06976 0.53382 4.57091 0.770801C1.87043 2.05366 0 4.80762 0 8.00043C0 10.1046 0.812938 12.0189 2.13978 13.4462L1.29289 14.2931C1.0069 14.5791 0.92134 15.0092 1.07612 15.3829C1.2309 15.7566 1.59554 16.0002 2 16.0002H5C5.55228 16.0002 6 15.5525 6 15.0002V12.0002C6 11.5958 5.75636 11.2311 5.38268 11.0764C5.00901 10.9216 4.57889 11.0071 4.29289 11.2931L3.55511 12.0309C2.58795 10.9651 2 9.5514 2 8.00043C2 5.60845 3.39967 3.5414 5.42909 2.57732Z" fill="white"/>
<path d="M11 0C10.4477 0 9.99999 0.447715 9.99999 1V4C9.99999 4.40446 10.2436 4.7691 10.6173 4.92388C10.991 5.07866 11.4211 4.9931 11.7071 4.70711L12.4448 3.96939C13.4119 5.03511 14 6.44912 14 8C14 10.392 12.6003 12.459 10.5709 13.4231C10.072 13.6601 9.85975 14.2566 10.0967 14.7555C10.3337 15.2543 10.9302 15.4666 11.4291 15.2296C14.1296 13.9468 16 11.1928 16 8C16 5.8956 15.1871 3.98156 13.8601 2.55412L14.7071 1.70711C14.9931 1.42111 15.0787 0.990991 14.9239 0.617317C14.7691 0.243642 14.4045 0 14 0H11Z" fill="white"/>
</g>
<defs>
<clipPath id="clip0_513_3269">
<rect width="16" height="16" fill="white"/>
</clipPath>
</defs>
</svg>
