<svg height="128" width="128" xmlns="http://www.w3.org/2000/svg"><path d="m83.636719 67.794922a20 20 0 0 1 -15.636719 15.800781v44.404297h40c11.08 0 20-8.92 20-20v-40.205078z" fill="#169318"/><path d="m0 67.794922v40.205078c0 11.08 8.92 20 20 20h40v-44.404297a20 20 0 0 1 -15.636719-15.800781z" fill="#993d16"/><path d="m68 0v44.404297a20 20 0 0 1 15.552734 15.390625h44.447266v-39.794922c0-11.08-8.92-20-20-20z" fill="#993d16"/><path d="m20 0c-11.08 0-20 8.92-20 20v39.794922h44.447266a20 20 0 0 1 15.552734-15.390625v-44.404297z" fill="#169318"/></svg>