<svg height="16" viewBox="0 0 16 16" width="16" xmlns="http://www.w3.org/2000/svg"><path d="m1 1v3.5585938l2.5957031 1.0761718a5 5 0 0 1 2.0390625-2.0390625l-1.0742187-2.5957031zm4.640625 0 .9179688 2.2128906a5 5 0 0 1 1.4414062-.2128906 5 5 0 0 1 1.4414062.2128906l.9179688-2.2128906zm5.800781 0-1.076172 2.5957031a5 5 0 0 1 2.039063 2.0390625l2.595703-1.0742187v-3.5605469zm-3.5019529 3a4 4 0 0 0 -3.9394531 4 4 4 0 0 0 4 4 4 4 0 0 0 4-4 4 4 0 0 0 -4-4 4 4 0 0 0 -.0605469 0zm-6.9394531 1.640625v4.71875l2.2128906-.9179688a5 5 0 0 1 -.2128906-1.4414062 5 5 0 0 1 .2128906-1.4414062zm14 0-2.212891.9179688a5 5 0 0 1 .212891 1.4414062 5 5 0 0 1 -.212891 1.4414062l2.212891.9179688zm-11.4042969 4.724609-2.5957031 1.074219v3.560547h3.5585938l1.0761718-2.595703a5 5 0 0 1 -2.0390625-2.039063zm8.8085939 0a5 5 0 0 1 -2.039063 2.039063l1.074219 2.595703h3.560547v-3.558594zm-5.8457032 2.421875-.9179688 2.212891h4.71875l-.9179688-2.212891a5 5 0 0 1 -1.4414062.212891 5 5 0 0 1 -1.4414062-.212891z" fill="#fff"/></svg>