<svg width="18" height="18" viewBox="0 0 18 18" fill="none" xmlns="http://www.w3.org/2000/svg">
<path d="M7.81404 5.70606C9.04953 5.26223 10.4851 5.53533 11.4749 6.52513C11.8288 6.87906 12.0891 7.28666 12.259 7.72015C12.5612 8.49147 13.4315 8.87172 14.2028 8.56946C14.9742 8.26721 15.3544 7.39691 15.0522 6.62559C14.7343 5.81449 14.2479 5.05553 13.5962 4.40381C11.3866 2.19423 7.98242 1.90803 5.46303 3.54507C5.25562 2.96524 4.70139 2.55036 4.05026 2.55036C3.22184 2.55036 2.55026 3.22194 2.55026 4.05036V6.87879C2.55026 7.70722 3.22184 8.37879 4.05026 8.37879H6.87869C7.70712 8.37879 8.37869 7.70722 8.37869 6.87879C8.37869 6.4041 8.1582 5.98092 7.81404 5.70606ZM10.186 12.2944C8.95048 12.7382 7.51492 12.4651 6.52513 11.4753C6.17119 11.1214 5.91091 10.7138 5.74104 10.2803C5.43878 9.50898 4.56848 9.12872 3.79716 9.43098C3.02584 9.73323 2.64559 10.6035 2.94784 11.3749C3.26569 12.186 3.75209 12.9449 4.40381 13.5966C6.61338 15.8062 10.0176 16.0924 12.537 14.4554C12.7444 15.0352 13.2986 15.4501 13.9497 15.4501C14.7782 15.4501 15.4497 14.7785 15.4497 13.9501V11.1217C15.4497 10.2932 14.7782 9.62165 13.9497 9.62165H11.1213C10.2929 9.62165 9.62131 10.2932 9.62131 11.1217C9.62131 11.5963 9.84181 12.0195 10.186 12.2944Z" fill="white" stroke="black" stroke-linecap="round"/>
</svg>
