<svg width="18" height="18" viewBox="0 0 18 18" fill="none" xmlns="http://www.w3.org/2000/svg">
<path d="M8 5.5C9.78974 5.5 11.2657 6.84334 11.4747 8.57674C10.9529 8.40317 10.3546 8.52404 9.93934 8.93934C9.35355 9.52513 9.35355 10.4749 9.93934 11.0607L11.9393 13.0607C12.5251 13.6464 13.4749 13.6464 14.0607 13.0607L16.0607 11.0607C16.6464 10.4749 16.6464 9.52513 16.0607 8.93934C15.6352 8.5139 15.0178 8.39745 14.4873 8.58997C14.2757 5.19115 11.4521 2.5 8 2.5C4.41015 2.5 1.5 5.41015 1.5 9C1.5 12.5899 4.41015 15.5 8 15.5C8.82843 15.5 9.5 14.8284 9.5 14C9.5 13.1716 8.82843 12.5 8 12.5C6.067 12.5 4.5 10.933 4.5 9C4.5 7.067 6.067 5.5 8 5.5Z" fill="white" stroke="black" stroke-linecap="round"/>
</svg>
