<svg width="18" height="18" viewBox="0 0 18 18" fill="none" xmlns="http://www.w3.org/2000/svg">
<path d="M3.51272 8.58997C2.98219 8.39745 2.36478 8.5139 1.93934 8.93934C1.35355 9.52513 1.35355 10.4749 1.93934 11.0607L3.93934 13.0607C4.52513 13.6464 5.47487 13.6464 6.06066 13.0607L8.06066 11.0607C8.64645 10.4749 8.64645 9.52513 8.06066 8.93934C7.64536 8.52404 7.04712 8.40317 6.52533 8.57674C6.73428 6.84334 8.21026 5.5 10 5.5C11.933 5.5 13.5 7.067 13.5 9C13.5 10.933 11.933 12.5 10 12.5C9.17157 12.5 8.5 13.1716 8.5 14C8.5 14.8284 9.17157 15.5 10 15.5C13.5899 15.5 16.5 12.5899 16.5 9C16.5 5.41015 13.5899 2.5 10 2.5C6.54787 2.5 3.72429 5.19115 3.51272 8.58997Z" fill="white" stroke="black" stroke-linecap="round"/>
</svg>
