<svg width="18" height="18" viewBox="0 0 18 18" fill="none" xmlns="http://www.w3.org/2000/svg">
<path d="M6.35441 11.6456C6.52581 11.286 6.54587 10.8723 6.41458 10.5H7.5V11.5854C7.12774 11.4541 6.71401 11.4742 6.35441 11.6456ZM11.6456 11.6456C11.286 11.4742 10.8723 11.4541 10.5 11.5854V10.5H11.5854C11.4541 10.8723 11.4742 11.286 11.6456 11.6456ZM11.6456 6.35441C11.4742 6.71401 11.4541 7.12774 11.5854 7.5H10.5V6.41458C10.8723 6.54587 11.286 6.52581 11.6456 6.35441ZM6.35442 6.35442C6.71401 6.52582 7.12774 6.54587 7.5 6.41458V7.5H6.41458C6.54587 7.12774 6.52581 6.71401 6.35442 6.35442ZM5.64558 5.64558C5.08822 5.37993 4.40083 5.47785 3.93934 5.93934L1.93934 7.93934C1.35355 8.52513 1.35355 9.47487 1.93934 10.0607L3.93934 12.0607C4.40084 12.5222 5.08823 12.6201 5.64558 12.3544C5.37992 12.9118 5.47784 13.5992 5.93934 14.0607L7.93934 16.0607C8.52513 16.6464 9.47487 16.6464 10.0607 16.0607L12.0607 14.0607C12.5222 13.5992 12.6201 12.9118 12.3544 12.3544C12.9118 12.6201 13.5992 12.5222 14.0607 12.0607L16.0607 10.0607C16.6464 9.47487 16.6464 8.52513 16.0607 7.93934L14.0607 5.93934C13.5992 5.47784 12.9118 5.37992 12.3544 5.64559C12.6201 5.08823 12.5222 4.40084 12.0607 3.93934L10.0607 1.93934C9.77935 1.65804 9.39782 1.5 9 1.5C8.60217 1.5 8.22064 1.65804 7.93934 1.93934L5.93934 3.93934C5.47784 4.40083 5.37993 5.08823 5.64558 5.64558Z" fill="white" stroke="black" stroke-linecap="round" stroke-linejoin="round"/>
</svg>
