<svg width="18" height="18" viewBox="0 0 18 18" fill="none" xmlns="http://www.w3.org/2000/svg">
<path d="M10.5 11.5854L10.5 6.41458C11.0277 6.60067 11.6386 6.4827 12.0607 6.06066C12.6464 5.47487 12.6464 4.52513 12.0607 3.93934L10.0607 1.93934C9.47487 1.35355 8.52513 1.35355 7.93934 1.93934L5.93934 3.93934C5.35355 4.52513 5.35355 5.47487 5.93934 6.06066C6.36138 6.4827 6.97234 6.60067 7.5 6.41458L7.5 11.5854C6.97234 11.3993 6.36138 11.5173 5.93934 11.9393C5.35355 12.5251 5.35355 13.4749 5.93934 14.0607L7.93934 16.0607C8.52513 16.6464 9.47487 16.6464 10.0607 16.0607L12.0607 14.0607C12.6464 13.4749 12.6464 12.5251 12.0607 11.9393C11.6386 11.5173 11.0277 11.3993 10.5 11.5854Z" fill="white" stroke="black" stroke-linecap="round" stroke-linejoin="round"/>
</svg>
