<svg width="18" height="18" viewBox="0 0 18 18" fill="none" xmlns="http://www.w3.org/2000/svg">
<path d="M6.41458 10.5H11.5854C11.3993 11.0277 11.5173 11.6386 11.9393 12.0607C12.5251 12.6464 13.4749 12.6464 14.0607 12.0607L16.0607 10.0607C16.6464 9.47487 16.6464 8.52513 16.0607 7.93934L14.0607 5.93934C13.4749 5.35355 12.5251 5.35355 11.9393 5.93934C11.5173 6.36138 11.3993 6.97234 11.5854 7.5H6.41458C6.60067 6.97234 6.4827 6.36138 6.06066 5.93934C5.47487 5.35355 4.52513 5.35355 3.93934 5.93934L1.93934 7.93934C1.35355 8.52513 1.35355 9.47487 1.93934 10.0607L3.93934 12.0607C4.52513 12.6464 5.47487 12.6464 6.06066 12.0607C6.4827 11.6386 6.60067 11.0277 6.41458 10.5Z" fill="white" stroke="black" stroke-linecap="round" stroke-linejoin="round"/>
</svg>
