<svg width="18" height="18" viewBox="0 0 18 18" fill="none" xmlns="http://www.w3.org/2000/svg">
<path d="M14.8216 4.27106C15.2019 3.99897 15.4497 3.55358 15.4497 3.05029C15.4497 2.22187 14.7782 1.55029 13.9497 1.55029H11.1213C10.2929 1.55029 9.62131 2.22187 9.62131 3.05029V5.87872C9.62131 6.70715 10.2929 7.37872 11.1213 7.37872C11.8172 7.37872 12.4024 6.90487 12.5718 6.26224C13.0101 6.83299 13.314 7.51086 13.4377 8.24808C13.5748 9.06509 14.3482 9.61629 15.1652 9.47922C15.9822 9.34216 16.5334 8.56872 16.3964 7.75172C16.1771 6.44496 15.6211 5.25423 14.8216 4.27106ZM6.26246 5.42796C6.83316 4.98981 7.51098 4.68586 8.24817 4.56218C9.06518 4.42511 9.61638 3.65168 9.47932 2.83467C9.34225 2.01766 8.56882 1.46646 7.75181 1.60353C6.44508 1.82276 5.2543 2.37868 4.27106 3.17821C3.99897 2.79787 3.55356 2.54999 3.05026 2.54999C2.22184 2.54999 1.55026 3.22156 1.55026 4.04999V6.87842C1.55026 7.70684 2.22184 8.37842 3.05026 8.37842H5.87869C6.70712 8.37842 7.37869 7.70685 7.37869 6.87842C7.37869 6.18264 6.90496 5.59751 6.26246 5.42796ZM6.87869 10.621C6.18279 10.621 5.59757 11.0949 5.42814 11.7376C4.98992 11.1668 4.68596 10.4889 4.56227 9.75172C4.42521 8.93471 3.65177 8.3835 2.83476 8.52057C2.01776 8.65764 1.46655 9.43107 1.60362 10.2481C1.82285 11.5548 2.37891 12.7455 3.17838 13.7287C2.7981 14.0008 2.55027 14.4461 2.55027 14.9494C2.55027 15.7778 3.22184 16.4494 4.05027 16.4494H6.87869C7.70712 16.4494 8.37869 15.7778 8.37869 14.9494L8.37869 12.121C8.37869 11.2926 7.70712 10.621 6.87869 10.621ZM11.7376 12.5718C11.1669 13.01 10.489 13.3139 9.75181 13.4376C8.9348 13.5747 8.3836 14.3481 8.52066 15.1651C8.65773 15.9821 9.43117 16.5333 10.2482 16.3963C11.555 16.177 12.7457 15.621 13.7289 14.8215C14.001 15.2018 14.4464 15.4497 14.9497 15.4497C15.7782 15.4497 16.4497 14.7781 16.4497 13.9497V11.1213C16.4497 10.2929 15.7782 9.62128 14.9497 9.62128H12.1213C11.2929 9.62128 10.6213 10.2929 10.6213 11.1213C10.6213 11.8171 11.0951 12.4022 11.7376 12.5718Z" fill="white" stroke="black" stroke-linecap="round" stroke-linejoin="round"/>
</svg>
